<?xml version="1.0" encoding="utf-8"?>
<!-- Generator: Adobe Illustrator 15.0.0, SVG Export Plug-In . SVG Version: 6.00 Build 0)  -->
<!DOCTYPE svg PUBLIC "-//W3C//DTD SVG 1.1//EN" "http://www.w3.org/Graphics/SVG/1.1/DTD/svg11.dtd">
<svg version="1.1" id="Layer_1" xmlns="http://www.w3.org/2000/svg" xmlns:xlink="http://www.w3.org/1999/xlink" x="0px" y="0px"
	 width="400px" height="400px" viewBox="0 0 400 400" enable-background="new 0 0 400 400" xml:space="preserve">
<g>
	<g>
		<path fill-rule="evenodd" clip-rule="evenodd" fill="#FFFFFF" d="M197.161,54.792c8.515-0.107,21.267,0.523,31.039,2.451
			c10.825,2.137,21.337,2.561,30.629,4.9c18.594,4.683,33.638,14.056,45.333,25.32c23.285,22.431,37.454,57.493,36.754,103.325
			c-0.168,11.138,0.545,20.87-1.224,30.221c-1.754,9.274-5.258,17.976-8.168,27.363c-13.044,42.081-41.316,80.586-85.354,91.888
			c-9.495,2.438-18.997,2.552-31.038,3.269c-10.693,0.636-18.757,2.925-30.63,0.818c-30.438-5.403-50.65-23.454-71.47-40.024
			c-20.397-16.234-36.857-37.271-46.149-65.345c-2.831-8.554-6.476-20.112-7.35-29.404c-1.97-20.875,2.463-44.213,8.575-61.668
			c12.394-35.39,36.867-62.744,69.428-78.818C153.798,61.056,173.922,55.085,197.161,54.792z M124.058,81.336
			c-23.086,15.459-41.095,37.4-51.866,64.527c0.988,0.771,0.593-0.479,0.817-0.814c7.554-11.386,15.006-21.208,24.504-30.223
			c29.634-28.128,67.126-50.251,118.433-55.95C176.736,54.697,146.892,66.048,124.058,81.336z M273.123,78.887
			c-10.921-7.012-25.104-14.211-38.389-16.744c-11.277-2.149-18.914,0.96-28.997,1.634c35.438,2.972,60.404,22.675,81.271,42.065
			c21.344,19.829,39.651,44.597,49.415,75.143C331.96,135.684,305.501,99.68,273.123,78.887z M333.158,149.949
			c-9.349-42.714-36.02-77.786-81.272-85.354C291.282,80.741,318.477,109.083,333.158,149.949z M170.615,74.394
			c-39.234,13.597-67.609,42.335-88.212,73.104c-8.153,12.175-18.016,28.903-19.195,45.741
			c-1.443,20.595,6.953,39.354,14.701,53.091c8.399,14.89,18.702,26.87,30.223,38.39c11.455,11.457,23.55,22.135,37.573,31.039
			c6.996,4.441,14.672,9.016,22.461,11.841c8.515,3.094,19.348,3.982,29.813,4.085c21,0.208,39.863-4.145,56.357-11.433
			c17.166-7.587,28.064-16.312,39.615-28.997c16.243-17.84,32.18-35.583,39.206-63.712c2.287-9.154,4.644-19.926,4.083-29.811
			c-0.474-8.349-5.021-19.021-7.759-26.139c-9.415-24.484-25.503-44.29-41.657-60.443c-10.739-10.74-23.571-21.387-37.979-29.813
			c-14.101-8.242-33.438-15.825-53.094-13.883C186.58,68.457,179.083,71.461,170.615,74.394z M67.7,166.691
			c11.277-26.429,31.029-46.565,49.416-64.524C96.394,119.152,75.727,138.372,67.7,166.691z M148.561,321.065
			c-29.342-16.942-52.513-42.233-71.06-68.608C95.193,281.049,115.772,308.934,148.561,321.065z M278.84,310.856
			c-8.039,5.482-15.77,11.782-24.504,16.742c-8.802,5.004-18.56,8.182-27.771,12.661c49.482-4.971,75.747-35.335,92.706-71.469
			C308.952,285.604,295.119,299.759,278.84,310.856z M201.245,341.486c-20.559-3.536-37.879-12.491-55.949-17.154
			C158.373,332.835,181.305,344.28,201.245,341.486z M213.906,339.853c6.827-0.558,12.752-4.342,18.378-6.126
			c4.268-1.121,9.501-3.536,13.068-5.31c1.198-0.595,3.482-1.184,2.859-2.042c-16.125,6.976-38.663,9.401-61.26,8.576
			C195.284,336.187,204.67,340.608,213.906,339.853z"/>
	</g>
	<path fill="#FFFFFF" d="M99.371,181.518h2.991v25.773c0,3.374-0.985,6.057-2.953,8.05c-1.97,1.995-4.517,2.991-7.641,2.991
		c-3.324,0-5.958-0.879-7.902-2.641c-1.943-1.763-2.874-4.338-2.791-7.727l0.049-0.15h2.793c0,2.726,0.668,4.742,2.006,6.044
		c1.338,1.306,3.285,1.958,5.846,1.958c2.21,0,4.03-0.768,5.458-2.308c1.43-1.534,2.145-3.609,2.145-6.218V181.518z"/>
	<path fill="#FFFFFF" d="M270.458,211.454l0.724,2.543h0.15l0.723-2.543l10.919-29.937h3.216l-13.512,36.293h-2.842l-13.509-36.293
		h3.239L270.458,211.454z"/>
	<path fill="#FFFFFF" d="M295.311,217.811h-2.991v-27.786h2.991V217.811z"/>
	<path fill="#FFFFFF" d="M309.121,217.811h-2.991v-27.786h2.991V217.811z"/>
	<path fill-rule="evenodd" clip-rule="evenodd" fill="#FFFFFF" d="M235.563,181.518v16.936h-20.615v-16.936h-2.99v16.936h-12.669
		l-6.176-16.936h-2.817l-6.223,16.936h-13.145v-16.936h-2.992v16.936h-9.496l-11.268-16.936h-2.991v16.936h-7.728v-1.729
		c0-4.671-1.288-8.46-3.862-11.367c-2.576-2.908-6.023-4.362-10.345-4.362c-4.254,0-7.645,1.454-10.171,4.362
		c-2.526,2.907-3.788,6.696-3.788,11.367v5.906c0,4.687,1.267,8.476,3.801,11.367c2.535,2.891,5.929,4.335,10.183,4.335
		c4.321,0,7.765-1.444,10.333-4.335c2.565-2.892,3.85-6.681,3.85-11.367v-1.338h7.728v16.519h2.991v-16.519h9.8l10.964,16.519h2.992
		v-16.519h12.102l-6.07,16.519h3.093l3.015-8.331l1.604-4.457h-0.008l0.848-2.336l0.031-0.088l6.1-16.819h0.15l6.013,16.819
		l1.833,5.091h0.005l0.646,1.806l0.028,0.082l2.941,8.233h3.091l-6.024-16.519h11.634v16.519h2.99v-16.519h20.615v16.519h2.99
		v-36.293H235.563z M133.489,202.63c0,3.972-0.986,7.151-2.955,9.533c-1.969,2.388-4.723,3.578-8.263,3.578
		c-3.456,0-6.151-1.196-8.088-3.59c-1.937-2.393-2.905-5.565-2.905-9.521v-5.958c0-3.92,0.965-7.077,2.894-9.472
		c1.926-2.393,4.618-3.589,8.075-3.589c3.522,0,6.277,1.196,8.263,3.589c1.985,2.395,2.979,5.552,2.979,9.472V202.63z
		 M147.172,198.453v-11.678l0.15-0.023l7.766,11.701H147.172z M167.936,212.477l-0.149,0.024l-7.458-11.209h7.607V212.477z"/>
	<rect x="292.32" y="181.518" fill-rule="evenodd" clip-rule="evenodd" fill="#FFFFFF" width="16.801" height="2.836"/>
</g>
</svg>
